<?xml version="1.0" standalone="no"?>
<!DOCTYPE svg PUBLIC "-//W3C//DTD SVG 20010904//EN"
 "http://www.w3.org/TR/2001/REC-SVG-20010904/DTD/svg10.dtd">
<svg version="1.0" xmlns="http://www.w3.org/2000/svg"
 width="1260.000000pt" height="1260.000000pt" viewBox="0 0 1260.000000 1260.000000"
 preserveAspectRatio="xMidYMid meet">
<metadata>
Created by potrace 1.11, written by Peter Selinger 2001-2013
</metadata>
<g transform="translate(0.000000,1260.000000) scale(0.100000,-0.100000)"
fill="#000000" stroke="none">
<path d="M9462 10818 c-12 -25 -74 -173 -72 -173 2 0 -8 -26 -47 -130 -19 -49
-38 -101 -43 -115 -4 -14 -12 -34 -16 -45 -4 -11 -8 -23 -9 -27 -2 -5 -4 -10
-5 -13 -1 -3 -3 -8 -5 -12 -1 -5 -5 -15 -8 -23 -4 -8 -25 -67 -47 -130 -22
-63 -45 -124 -50 -135 -8 -16 -71 -189 -84 -230 -2 -5 -6 -17 -9 -25 -4 -8
-25 -67 -47 -130 -23 -63 -47 -128 -53 -145 -7 -16 -12 -32 -13 -35 0 -3 -4
-12 -7 -20 -4 -8 -25 -67 -48 -130 -22 -63 -54 -151 -70 -195 -17 -44 -31 -84
-33 -90 -2 -5 -6 -17 -9 -25 -8 -18 -67 -181 -71 -195 -2 -5 -8 -22 -14 -36
-6 -15 -28 -76 -48 -135 -21 -60 -43 -120 -51 -134 -7 -14 -13 -29 -13 -34 0
-10 -55 -168 -70 -201 -12 -26 -108 -297 -110 -310 -1 -3 -8 -22 -17 -42 -8
-21 -32 -85 -53 -143 -56 -157 -149 -413 -157 -430 -3 -8 -5 -21 -4 -27 1 -7
-3 -13 -9 -13 -5 0 -9 -3 -8 -7 3 -7 -31 -110 -52 -158 -12 -30 -80 -218 -85
-235 -4 -15 -60 -170 -72 -200 -3 -8 -7 -20 -8 -26 -2 -5 -20 -57 -40 -115
-21 -57 -38 -110 -38 -116 0 -7 -3 -13 -7 -13 -4 0 -7 -6 -8 -12 0 -7 -19 -66
-41 -132 -23 -65 -40 -120 -39 -121 2 -1 55 -21 118 -45 63 -23 127 -49 142
-56 15 -8 31 -15 35 -16 15 -1 28 -6 156 -52 167 -61 167 -61 186 -11 8 22 17
42 20 45 4 3 7 12 9 20 2 8 28 83 59 165 30 83 71 193 90 245 19 52 40 111 48
130 19 50 28 74 29 80 1 3 6 19 13 35 17 45 26 69 28 75 1 3 5 13 9 22 4 9 9
22 10 30 2 7 8 27 15 43 6 17 16 41 21 55 5 14 15 39 21 55 7 17 13 35 14 41
2 6 28 79 59 162 31 83 56 154 56 158 0 3 6 20 14 37 7 18 19 48 26 67 7 19
16 44 20 55 4 11 15 40 24 65 8 25 21 59 27 75 7 17 13 32 13 35 1 3 6 19 13
35 11 30 18 52 23 70 1 6 12 33 25 60 12 28 23 55 25 60 1 6 4 15 5 20 2 6 12
33 22 60 10 28 18 52 19 55 0 3 4 14 9 25 25 63 65 171 65 177 0 4 5 19 12 35
6 15 12 31 13 36 2 4 4 10 5 15 1 4 2 10 1 15 0 4 3 7 7 7 5 0 9 6 9 13 0 10
76 224 106 297 6 14 11 27 12 30 18 60 80 234 95 265 5 11 18 47 29 80 11 33
25 74 32 90 7 17 13 32 14 35 6 24 28 86 70 195 5 11 10 29 12 40 2 10 7 22
11 25 4 3 8 12 10 20 4 19 98 283 120 334 9 22 17 44 17 50 1 6 4 18 8 26 3 8
23 60 42 115 20 55 39 107 42 115 4 8 7 17 7 20 1 4 32 92 54 150 3 8 6 20 8
25 1 6 14 42 29 80 15 39 28 75 30 80 1 6 5 19 10 30 4 11 17 48 30 82 l23 62
-24 16 c-13 8 -30 15 -39 15 -8 0 -15 5 -15 10 0 6 -3 9 -7 8 -5 0 -17 2 -28
7 -11 4 -56 21 -100 39 -44 17 -82 31 -85 31 -8 0 -123 46 -142 56 -10 5 -23
9 -30 9 -7 0 -24 6 -38 13 -14 8 -39 16 -55 20 -17 3 -37 8 -46 12 -10 4 -19
-2 -27 -17z"/>
<path d="M11915 10273 c-20 -48 -38 -92 -40 -98 -1 -5 -5 -17 -8 -25 -8 -19
-76 -206 -87 -240 -11 -32 -68 -190 -77 -210 -17 -41 -55 -150 -65 -185 -6
-22 -14 -42 -17 -45 -3 -3 -17 -36 -29 -75 -13 -38 -30 -84 -38 -102 -8 -17
-14 -36 -14 -42 0 -6 -4 -19 -9 -29 -5 -9 -17 -39 -26 -67 -9 -27 -20 -59 -25
-70 -5 -11 -20 -54 -35 -95 -14 -41 -31 -86 -37 -100 -7 -14 -12 -27 -13 -30
-4 -16 -17 -58 -25 -75 -4 -11 -22 -60 -40 -110 -17 -49 -34 -97 -39 -105 -4
-8 -16 -42 -26 -75 -11 -33 -24 -63 -28 -66 -5 -3 -8 -10 -8 -15 1 -11 -8 -43
-19 -69 -5 -11 -41 -110 -80 -220 -39 -110 -80 -222 -90 -250 -61 -160 -130
-358 -130 -371 0 -8 -4 -14 -10 -14 -5 0 -10 -8 -10 -19 0 -10 -9 -40 -19 -67
-11 -27 -38 -101 -61 -164 -22 -63 -44 -122 -47 -130 -3 -8 -7 -19 -9 -25 -2
-9 -33 -94 -122 -340 -20 -55 -37 -104 -39 -110 -1 -5 -14 -41 -28 -80 -15
-38 -28 -77 -30 -85 -4 -15 -51 -152 -62 -180 -3 -8 -7 -19 -9 -25 -1 -5 -9
-32 -18 -60 -8 -27 -14 -50 -13 -51 7 -6 318 -121 347 -129 8 -2 16 -4 18 -5
1 -2 5 -3 10 -5 4 -1 14 -4 22 -7 53 -20 142 -51 182 -62 l46 -14 23 61 c13
34 24 64 25 67 0 3 4 12 7 20 8 19 51 133 52 140 1 3 5 14 9 25 4 11 16 43 26
70 10 28 21 59 26 70 4 11 8 25 10 30 7 24 55 152 64 170 6 11 12 29 14 40 2
11 15 49 29 85 68 176 189 511 190 528 0 6 4 12 9 12 4 0 8 7 8 15 0 9 14 52
31 96 17 44 32 86 33 92 2 7 6 19 9 27 9 20 58 152 61 165 2 6 8 23 14 38 7
16 12 31 12 34 0 4 12 36 26 72 15 36 28 72 29 81 2 8 4 16 5 18 2 1 3 5 5 10
1 4 5 14 8 22 4 8 25 67 48 130 56 155 114 315 156 430 19 52 35 101 36 108 0
6 5 12 10 12 6 0 8 3 4 6 -3 3 2 27 12 53 22 56 30 80 31 86 1 7 49 137 59
160 5 11 37 99 70 195 34 96 66 184 71 195 9 22 114 316 116 328 1 4 3 9 4 12
1 3 3 8 5 13 2 7 8 23 30 82 27 72 43 115 43 120 0 3 6 19 12 35 7 17 13 35
14 40 3 9 7 22 23 63 9 23 9 23 18 57 4 17 12 36 18 43 5 6 6 12 2 12 -4 0 -2
6 4 14 8 10 8 16 -1 24 -14 11 -282 112 -298 112 -6 0 -10 5 -10 11 0 5 -4 7
-10 4 -5 -3 -19 -1 -30 5 -12 6 -29 13 -38 15 -9 3 -53 17 -97 33 -140 51
-126 54 -170 -45z"/>
<path d="M10383 9726 c-1 -12 -67 -197 -82 -231 -13 -27 -101 -271 -101 -278
0 -3 -5 -18 -12 -34 -6 -15 -12 -30 -13 -33 -1 -3 -4 -12 -8 -20 -3 -8 -17
-48 -32 -89 -14 -41 -29 -79 -33 -85 -3 -6 -7 -15 -7 -21 -1 -11 -10 -34 -27
-75 -6 -14 -12 -31 -14 -38 -3 -15 -179 -503 -195 -542 -6 -14 -30 -79 -54
-145 -24 -66 -49 -133 -56 -150 -6 -16 -14 -38 -15 -47 -2 -9 -17 -50 -32 -90
-16 -40 -42 -111 -58 -158 -16 -47 -33 -88 -39 -92 -5 -4 -7 -8 -3 -8 4 0 3
-12 -3 -27 -33 -83 -62 -162 -71 -193 -5 -19 -16 -48 -23 -65 -11 -27 -68
-182 -71 -195 0 -3 -3 -12 -7 -20 -3 -8 -27 -73 -52 -145 -25 -71 -50 -139
-54 -150 -5 -11 -26 -69 -47 -130 -20 -60 -43 -122 -51 -137 -7 -16 -12 -28
-9 -28 2 0 -10 -37 -26 -82 -37 -102 -87 -251 -88 -259 0 -7 59 -33 130 -55
25 -8 54 -19 65 -23 57 -23 136 -53 147 -55 7 -2 20 -6 28 -9 34 -13 166 -59
180 -62 8 -2 30 -8 48 -14 36 -11 41 -4 58 67 4 15 10 32 14 37 10 14 45 118
42 128 -1 4 3 7 9 7 5 0 7 5 4 10 -3 6 -2 10 3 10 5 0 9 6 9 13 0 10 124 356
197 550 14 37 24 67 21 67 -3 0 1 10 9 23 7 12 22 47 31 77 10 30 21 59 26 64
5 6 9 18 9 27 0 9 13 50 29 90 16 41 52 139 81 219 28 80 55 154 60 165 4 11
15 40 24 65 8 25 21 59 27 75 7 17 13 35 15 40 3 13 76 216 113 315 16 41 46
122 66 180 21 58 42 116 48 130 6 14 11 27 12 30 6 22 21 66 43 125 14 39 27
72 28 75 0 3 4 13 7 23 4 9 10 25 14 35 3 9 7 19 7 22 1 3 7 19 13 35 7 17 33
89 58 160 25 72 49 137 52 145 3 8 7 20 9 25 1 6 17 48 34 95 18 47 33 90 35
95 1 6 7 21 12 35 11 26 82 227 87 245 2 6 6 18 11 28 4 10 6 19 4 21 -15 13
-251 110 -294 120 -5 1 -27 10 -49 19 -21 9 -41 17 -45 17 -3 0 -49 16 -101
36 -132 50 -147 54 -147 40z"/>
<path d="M7719 9715 c-2 -19 -3 -24 -16 -55 -6 -14 -21 -54 -33 -90 -13 -36
-26 -69 -30 -75 -3 -5 -17 -44 -30 -85 -14 -41 -28 -77 -31 -80 -3 -3 -10 -18
-14 -35 -4 -16 -9 -34 -11 -40 -1 -5 -23 -63 -47 -127 -25 -65 -43 -118 -41
-118 3 0 -3 -14 -12 -32 -9 -17 -32 -77 -50 -132 -19 -56 -41 -117 -48 -136
-16 -39 -25 -68 -26 -75 0 -3 -7 -19 -15 -35 -8 -16 -15 -32 -14 -35 1 -6 -15
-51 -36 -100 -8 -16 -17 -43 -21 -60 -4 -16 -10 -34 -14 -40 -3 -5 -12 -30
-19 -55 -7 -25 -16 -49 -21 -55 -4 -5 -10 -23 -14 -40 -4 -16 -13 -43 -21 -60
-7 -16 -17 -43 -23 -60 -6 -16 -13 -39 -18 -50 -4 -11 -8 -24 -10 -30 -2 -5
-21 -59 -43 -120 -23 -60 -57 -155 -77 -210 -20 -55 -39 -107 -42 -115 -3 -8
-6 -17 -7 -20 -1 -3 -5 -13 -9 -22 -4 -9 -9 -22 -10 -30 -2 -7 -8 -26 -15 -43
-7 -16 -21 -55 -32 -85 -10 -30 -26 -75 -34 -100 -9 -25 -19 -52 -22 -60 -3
-8 -7 -17 -7 -20 -3 -11 -59 -166 -67 -185 -5 -11 -25 -67 -45 -125 -19 -58
-40 -114 -45 -125 -8 -18 -107 -297 -113 -320 -2 -5 -6 -17 -9 -25 -31 -72
-84 -239 -79 -247 6 -8 132 -67 152 -71 6 -1 9 -2 118 -41 45 -17 82 -27 82
-23 0 4 4 1 8 -5 4 -7 17 -14 27 -16 11 -2 27 -7 35 -10 39 -15 116 -37 121
-34 3 1 12 -3 20 -9 8 -6 25 -10 37 -10 21 1 31 19 88 171 35 94 73 195 84
225 25 73 75 208 90 245 7 17 14 37 15 45 2 8 21 61 43 117 22 56 37 104 34
107 -3 4 1 6 8 6 7 0 11 3 8 6 -4 3 7 37 22 75 16 38 26 69 23 69 -3 0 0 6 6
13 6 8 12 22 14 33 2 10 9 31 15 45 6 15 24 64 41 110 56 159 90 249 96 259 3
6 8 18 10 27 2 10 9 32 16 48 6 17 13 35 14 40 2 8 66 185 93 255 3 8 6 17 7
20 4 11 17 46 25 67 5 12 23 63 41 115 17 51 37 107 44 123 20 47 40 100 40
105 0 5 32 93 45 125 10 25 26 69 130 355 44 124 84 232 87 240 3 8 7 21 9 27
1 7 15 46 30 85 16 40 29 75 29 78 0 3 5 19 12 35 16 43 21 58 63 178 43 123
50 104 -50 142 -25 9 -59 23 -77 31 -17 8 -37 14 -45 14 -8 0 -18 3 -22 8 -4
4 -11 8 -14 8 -4 1 -18 5 -32 10 -14 4 -27 6 -29 5 -2 -2 -7 1 -10 6 -5 6
-106 46 -146 57 -5 2 -17 6 -25 9 -117 48 -159 56 -161 32z"/>
<path d="M14 9363 c-7 -6 -10 -106 -10 -317 l1 -310 330 1 330 0 0 -3203 c0
-1762 -4 -3206 -8 -3210 -4 -4 -153 -7 -332 -7 l-325 0 4 -251 c2 -138 5 -254
5 -257 1 -3 21 -6 46 -5 25 1 45 -2 45 -7 0 -4 5 -5 12 -1 17 11 131 11 145 1
7 -5 13 -6 13 -1 0 5 28 8 62 6 35 -1 69 -2 76 -2 6 0 31 0 55 0 23 0 85 0
137 0 52 0 111 1 130 1 19 1 37 0 40 -1 17 -6 62 -4 66 2 3 5 13 4 23 -2 12
-6 22 -5 29 2 9 9 12 9 12 0 0 -8 7 -9 25 -2 17 7 25 6 25 -1 0 -8 4 -8 14 0
9 8 16 8 20 2 4 -6 15 -7 29 -2 12 5 32 5 44 0 14 -5 23 -5 23 2 0 6 7 6 19
-1 13 -7 28 -7 46 0 14 5 24 6 21 1 -4 -5 9 -6 29 -1 19 4 35 5 35 1 0 -3 11
-6 25 -6 14 0 25 4 25 8 0 5 5 5 12 1 15 -10 128 -11 128 -2 0 4 14 3 30 -2
19 -5 30 -5 30 1 0 6 5 7 12 3 16 -10 218 -11 218 -1 0 5 5 5 12 1 18 -11
1590 -12 1606 -1 7 6 12 6 12 -1 0 -6 13 -7 35 -2 19 4 35 5 35 1 0 -9 31 -8
46 1 5 4 16 3 23 -1 7 -5 28 -5 46 -1 21 5 38 3 44 -3 6 -6 11 -7 11 -1 0 5
67 9 163 10 242 2 485 14 597 30 25 4 52 8 60 9 14 2 86 14 122 21 55 10 279
67 311 79 20 8 37 13 37 10 0 -3 17 3 38 14 20 10 39 19 42 19 3 0 18 5 33 11
16 6 33 11 38 11 5 0 17 4 27 10 9 5 70 35 135 66 64 31 120 60 123 65 3 5 14
9 25 9 10 0 19 5 19 10 0 6 5 10 10 10 15 0 203 123 280 183 126 99 232 205
343 342 34 43 127 185 127 195 0 5 4 10 8 12 15 6 137 268 125 268 -3 0 -1 6
4 13 32 39 97 315 103 432 10 181 0 580 -14 603 -3 5 -7 26 -10 47 -27 200
-183 565 -308 720 -100 123 -235 258 -322 320 -24 18 -47 35 -81 63 -5 4 -39
25 -75 47 -36 21 -72 44 -80 51 -28 21 -338 174 -354 174 -2 0 -21 8 -42 17
-22 9 -46 18 -54 19 -8 2 -23 7 -35 13 -30 15 -216 75 -297 97 -5 1 -10 3 -13
4 -3 1 -8 3 -12 4 -5 1 -31 8 -59 15 -29 7 -58 14 -65 15 -8 2 -21 6 -29 9 -8
4 -28 8 -45 11 -16 2 -31 5 -32 6 -4 3 -11 5 -68 15 -27 4 -54 10 -60 11 -27
7 -64 15 -100 19 -36 5 -73 24 -49 26 5 0 16 2 24 4 27 7 106 24 138 30 13 2
31 6 40 9 9 3 33 8 52 12 44 7 51 9 72 18 9 4 21 5 27 2 5 -4 12 -2 15 3 3 4
25 12 48 16 24 5 45 9 48 10 3 1 39 11 80 24 100 30 244 79 300 103 25 10 54
23 65 27 65 28 161 77 167 86 4 5 8 6 8 2 0 -4 20 6 45 23 25 17 45 27 45 23
0 -4 4 -3 8 2 4 6 36 30 72 54 112 75 246 196 311 282 13 17 29 36 34 42 14
16 75 107 75 112 0 2 14 27 30 55 17 28 30 57 30 65 0 8 4 15 8 15 4 0 23 46
42 103 45 137 43 130 46 147 29 135 31 146 40 260 13 149 8 354 -11 465 -49
287 -141 504 -301 710 -51 66 -130 149 -223 235 -34 31 -187 139 -236 165 -27
15 -58 34 -67 43 -10 8 -18 12 -18 9 0 -4 -19 4 -43 17 -72 41 -267 118 -357
141 -37 10 -245 64 -247 65 -2 0 -4 0 -5 1 -2 1 -14 2 -28 4 -14 1 -38 5 -55
8 -95 18 -199 26 -400 33 -263 9 -3999 15 -4011 7z m2678 -628 c434 -8 534
-13 633 -36 59 -13 196 -56 242 -76 18 -7 35 -13 38 -13 18 -1 225 -122 225
-132 0 -4 4 -8 10 -8 31 0 218 -190 279 -285 70 -106 136 -250 156 -340 30
-131 39 -212 39 -375 0 -134 -7 -218 -25 -284 -6 -22 -11 -41 -10 -41 5 0 -52
-153 -78 -208 -34 -72 -102 -183 -142 -231 -53 -63 -229 -232 -229 -220 0 3
-24 -13 -54 -35 -58 -43 -254 -140 -326 -161 -25 -8 -49 -17 -55 -20 -10 -8
-101 -30 -145 -37 -60 -9 -278 -15 -575 -17 l-319 -1 -1 1248 c0 687 3 1257 7
1268 4 11 12 18 17 14 6 -3 146 -8 313 -10z m288 -3209 c63 -3 126 -8 140 -10
14 -3 59 -10 100 -16 41 -6 82 -14 90 -17 8 -3 24 -7 35 -8 22 -2 183 -50 223
-67 15 -6 33 -12 40 -14 24 -5 227 -106 230 -115 2 -5 9 -9 15 -9 14 0 145
-89 212 -145 123 -101 285 -290 346 -405 13 -25 26 -47 29 -50 6 -6 33 -62 54
-112 9 -21 22 -53 30 -70 15 -36 46 -135 49 -158 2 -8 5 -19 8 -25 4 -5 5 -18
4 -27 -2 -10 0 -18 4 -18 4 0 7 -8 8 -17 0 -10 4 -38 8 -63 17 -117 20 -153
19 -265 -1 -156 -16 -269 -58 -443 -34 -142 -146 -386 -216 -469 -5 -7 -10
-15 -10 -18 0 -4 -6 -12 -12 -19 -7 -7 -29 -32 -48 -56 -38 -47 -125 -136
-182 -186 -52 -46 -164 -124 -177 -124 -6 0 -11 -4 -11 -8 0 -7 -165 -94 -240
-125 -92 -39 -247 -88 -325 -103 -11 -2 -31 -6 -45 -9 -111 -21 -284 -30 -792
-38 -127 -2 -148 -1 -149 13 -6 78 -3 3188 3 3196 8 11 407 11 618 0z"/>
</g>
</svg>
